<svg width="24" height="24" viewBox="0 0 24 24" fill="none" xmlns="http://www.w3.org/2000/svg">
<path d="M13.125 5.625C18.375 6.375 21.375 12 21.375 12C21.375 12 20.625 13.875 19.125 15.375M15.375 17.625C6.375 20.625 2.625 12 2.625 12C2.625 12 3.375 9.375 7.125 7.125" stroke="black" stroke-width="1.5" stroke-linecap="round" stroke-linejoin="round"/>
<path d="M12.9375 13.6238C12.5313 13.8583 12.0521 13.9321 11.5942 13.8306C11.1363 13.729 10.7331 13.4596 10.4641 13.0755C10.1951 12.6913 10.0798 12.2202 10.141 11.7553C10.2023 11.2903 10.4355 10.8651 10.7948 10.5637L12 12L12.9375 13.6238Z" fill="black" stroke="black" stroke-width="1.5" stroke-linecap="round" stroke-linejoin="round"/>
<path d="M5.625 2.625L18.375 21.375" stroke="black" stroke-width="1.5" stroke-linecap="round" stroke-linejoin="round"/>
</svg>
