<svg width="27" height="27" viewBox="0 0 27 27" fill="none" xmlns="http://www.w3.org/2000/svg">
<path d="M13.3333 0C5.98533 0 0 5.98533 0 13.3333C0 20.6813 5.98533 26.6667 13.3333 26.6667C20.6813 26.6667 26.6667 20.6813 26.6667 13.3333C26.6667 5.98533 20.6813 0 13.3333 0ZM13.3333 2.66667C19.2402 2.66667 24 7.4265 24 13.3333C24 19.2402 19.2402 24 13.3333 24C7.4265 24 2.66667 19.2402 2.66667 13.3333C2.66667 7.4265 7.4265 2.66667 13.3333 2.66667ZM19.0573 8.39062L10.6667 16.7812L7.60937 13.724L5.72396 15.6094L10.6667 20.5521L20.9427 10.276L19.0573 8.39062Z" fill="currentColor"/>
</svg>
