<svg width="30" height="26" viewBox="0 0 30 26" fill="none" xmlns="http://www.w3.org/2000/svg">
<path d="M0 26L15 0L30 26H0ZM13.6364 17.7895H16.3636V10.9474H13.6364V17.7895ZM15 21.8947C15.3864 21.8947 15.7105 21.7634 15.9723 21.5006C16.2332 21.2388 16.3636 20.914 16.3636 20.5263C16.3636 20.1386 16.2332 19.8138 15.9723 19.552C15.7105 19.2893 15.3864 19.1579 15 19.1579C14.6136 19.1579 14.29 19.2893 14.0291 19.552C13.7673 19.8138 13.6364 20.1386 13.6364 20.5263C13.6364 20.914 13.7673 21.2388 14.0291 21.5006C14.29 21.7634 14.6136 21.8947 15 21.8947ZM4.70455 23.2632H25.2955L15 5.47368L4.70455 23.2632Z" fill="currentColor"/>
</svg>
